<svg width="252" height="36" viewBox="0 0 252 36" fill="none" xmlns="http://www.w3.org/2000/svg">
<path d="M22.9265 5.5083L21.8848 8.12704C23.0705 8.66846 24.1508 9.41567 25.0758 10.334L27.0646 8.34526C25.867 7.15849 24.4652 6.19745 22.9265 5.5083Z" fill="#2A5AFF"/>
<path d="M6.23413 17.9227C6.26444 16.6647 6.50953 15.4211 6.95881 14.2457L4.3442 13.2081C3.76344 14.7136 3.45127 16.3093 3.42188 17.9227H6.23413Z" fill="#2A5AFF"/>
<path d="M7.07822 22.4355C6.55318 21.1733 6.26697 19.8247 6.23413 18.458H3.42188C3.45395 20.2046 3.81868 21.929 4.49654 23.539L7.07822 22.4355Z" fill="#2A5AFF"/>
<path d="M7.29673 22.9214L4.71094 24.0372C5.39144 25.4938 6.31926 26.8215 7.4532 27.9612L9.44195 25.9725C8.56016 25.0835 7.83488 24.052 7.29673 22.9214Z" fill="#2A5AFF"/>
<path d="M7.16038 13.7557C7.70742 12.5085 8.48085 11.3735 9.44148 10.4082L7.45273 8.41943C6.2168 9.65433 5.22497 11.1113 4.5293 12.714L7.16038 13.7557Z" fill="#2A5AFF"/>
<path d="M9.82337 26.343L7.82227 28.3318C9.08609 29.5155 10.561 30.4513 12.1704 31.0905L13.2203 28.48C11.9681 27.979 10.8171 27.2549 9.82337 26.343Z" fill="#2A5AFF"/>
<path d="M11.9864 31.5846C10.3095 30.9161 8.77309 29.9384 7.45719 28.7024L5.39844 30.7611C6.99327 32.2745 8.86342 33.4682 10.9077 34.2775L11.9864 31.5846Z" fill="#2A5AFF"/>
<path d="M7.07368 28.3359C5.8925 27.1498 4.92817 25.766 4.22436 24.2472L1.56445 25.3919C2.4162 27.2473 3.58842 28.938 5.02728 30.3864L7.07368 28.3359Z" fill="#2A5AFF"/>
<path d="M17.3313 32.0663V29.2541H17.2942C16.0797 29.2544 14.8735 29.0541 13.7243 28.6611L12.6826 31.2757C14.1637 31.7994 15.7233 32.0668 17.2942 32.0663H17.3313Z" fill="#2A5AFF"/>
<path d="M4.00633 23.7614C3.29779 22.0811 2.91628 20.2812 2.88226 18.458H0C0.0299643 20.6743 0.488577 22.8639 1.35054 24.906L4.00633 23.7614Z" fill="#2A5AFF"/>
<path d="M21.6863 28.344C20.476 28.867 19.182 29.1696 17.8652 29.2375V32.0539C19.568 31.988 21.2436 31.6054 22.8062 30.9257L21.6863 28.344Z" fill="#2A5AFF"/>
<path d="M4.05222 12.5206C4.7686 10.8515 5.79402 9.33297 7.07448 8.04484L5.01572 5.98608C3.45924 7.55722 2.2181 9.41195 1.35938 11.45L4.05222 12.5206Z" fill="#2A5AFF"/>
<path d="M2.88226 17.9227C2.91221 16.241 3.23981 14.5779 3.84987 13.0105L1.16114 11.9441C0.422614 13.8523 0.0294433 15.8768 0 17.9227H2.88226Z" fill="#2A5AFF"/>
<path d="M5.41016 5.62358L7.46891 7.68233C8.68284 6.54272 10.0859 5.62314 11.6152 4.96478L10.4582 2.29663C8.59348 3.10105 6.88476 4.22719 5.41016 5.62358Z" fill="#2A5AFF"/>
<path d="M12.0929 4.75483C13.7501 4.10682 15.5139 3.77445 17.2933 3.77486H17.3304V0.892604H17.2933C15.1213 0.888833 12.9683 1.29681 10.9482 2.09492L12.0929 4.75483Z" fill="#2A5AFF"/>
<path d="M17.3307 32.5974H17.2937C15.6555 32.5977 14.0292 32.3192 12.4844 31.7739L11.418 34.4627C13.3026 35.1403 15.2909 35.4845 17.2937 35.4797H17.3307V32.5974Z" fill="#2A5AFF"/>
<path d="M30.6709 12.8335C31.3232 14.4525 31.6735 16.1774 31.7044 17.9227H34.5866C34.5647 15.7888 34.1458 13.6776 33.3514 11.697L30.6709 12.8335Z" fill="#2A5AFF"/>
<path d="M24.1568 34.0713L23.008 31.4155C21.382 32.1252 19.638 32.526 17.8652 32.5973V35.4795C20.0325 35.4118 22.1674 34.934 24.1568 34.0713Z" fill="#2A5AFF"/>
<path d="M27.4428 28.4099C26.2916 29.5522 24.9569 30.493 23.4941 31.1933L24.6388 33.8533C26.4389 33.0082 28.0798 31.8591 29.4892 30.4563L27.4428 28.4099Z" fill="#2A5AFF"/>
<path d="M31.7044 18.458C31.6754 20.0636 31.3776 21.653 30.8232 23.1602L33.512 24.2266C34.1993 22.3812 34.5642 20.4313 34.5908 18.4621L31.7044 18.458Z" fill="#2A5AFF"/>
<path d="M30.6269 23.6543C29.9602 25.2702 29.006 26.7518 27.8105 28.0271L29.8693 30.0858C31.3424 28.5309 32.5138 26.7159 33.3239 24.7331L30.6269 23.6543Z" fill="#2A5AFF"/>
<path d="M27.0647 28.0354L25.0759 26.0466C24.2239 26.8847 23.2423 27.5798 22.1689 28.1054L23.2848 30.6953C24.6834 30.0242 25.9608 29.1253 27.0647 28.0354Z" fill="#2A5AFF"/>
<path d="M27.5177 22.4191C27.0253 23.6108 26.3286 24.7075 25.459 25.6595L27.4354 27.6565C28.5795 26.4301 29.4932 25.0074 30.1324 23.4567L27.5177 22.4191Z" fill="#2A5AFF"/>
<path d="M28.3525 18.458C28.3246 19.6395 28.1063 20.8088 27.7061 21.9208L30.3248 22.9626C30.8492 21.5176 31.1275 19.995 31.1483 18.458H28.3525Z" fill="#2A5AFF"/>
<path d="M25.4453 10.721C26.249 11.5955 26.9067 12.5938 27.3929 13.6774L29.9746 12.5616C29.3466 11.1478 28.488 9.84819 27.4341 8.71582L25.4453 10.721Z" fill="#2A5AFF"/>
<path d="M21.4115 7.91713L22.4532 5.30251C20.9966 4.71885 19.4508 4.38881 17.8828 4.32666V7.14304C19.0938 7.20389 20.2863 7.46548 21.4115 7.91713Z" fill="#2A5AFF"/>
<path d="M27.5879 14.1674C28.0577 15.3651 28.3127 16.6363 28.3414 17.9225H31.1537C31.1243 16.253 30.7922 14.6026 30.1737 13.0515L27.5879 14.1674Z" fill="#2A5AFF"/>
<path d="M12.3076 5.24077L13.4193 7.82657C14.6582 7.36207 15.9708 7.12495 17.2939 7.12659H17.331V4.31433H17.2939C15.5889 4.31307 13.8984 4.62716 12.3076 5.24077Z" fill="#2A5AFF"/>
<path d="M17.8652 3.79542C19.5052 3.85481 21.1225 4.1975 22.6457 4.80833L23.6997 2.12783C21.8417 1.37937 19.8672 0.961336 17.8652 0.892578V3.79542Z" fill="#2A5AFF"/>
<path d="M23.124 5.01005C24.7309 5.72578 26.1945 6.7275 27.4433 7.96642L29.502 5.90767C27.9701 4.39319 26.1686 3.17827 24.1905 2.32544L23.124 5.01005Z" fill="#2A5AFF"/>
<path d="M9.82337 10.0375C10.7372 9.19906 11.7853 8.51985 12.9239 8.02818L11.8121 5.44238C10.3417 6.07429 8.99175 6.95611 7.82227 8.04876L9.82337 10.0375Z" fill="#2A5AFF"/>
<path d="M29.8595 6.30298L27.8008 8.36173C28.9061 9.53386 29.8079 10.8824 30.4689 12.3516L33.1247 11.2069C32.3245 9.39775 31.2201 7.73909 29.8595 6.30298Z" fill="#2A5AFF"/>
<path d="M41.2585 28.2561V9.13029H44.7232V25.3517H53.1468V28.2561H41.2585ZM54.9525 28.2561V13.9117H58.3331V28.2561H54.9525ZM56.6522 11.8759C56.1167 11.8759 55.656 11.6985 55.27 11.3436C54.884 10.9825 54.691 10.5498 54.691 10.0455C54.691 9.53497 54.884 9.10227 55.27 8.7474C55.656 8.3863 56.1167 8.20575 56.6522 8.20575C57.1938 8.20575 57.6545 8.3863 58.0343 8.7474C58.4203 9.10227 58.6133 9.53497 58.6133 10.0455C58.6133 10.5498 58.4203 10.9825 58.0343 11.3436C57.6545 11.6985 57.1938 11.8759 56.6522 11.8759ZM73.5704 13.9117L68.4621 28.2561H64.7266L59.6183 13.9117H63.223L66.5196 24.5673H66.669L69.975 13.9117H73.5704ZM80.7202 28.5363C79.2821 28.5363 78.04 28.2374 76.9941 27.6397C75.9544 27.0358 75.1543 26.1829 74.594 25.0809C74.0337 23.9727 73.7535 22.6684 73.7535 21.168C73.7535 19.6924 74.0337 18.3975 74.594 17.283C75.1606 16.1624 75.9512 15.2908 76.9661 14.6682C77.9809 14.0394 79.1731 13.725 80.5428 13.725C81.4269 13.725 82.2611 13.8682 83.0456 14.1546C83.8363 14.4347 84.5336 14.8705 85.1375 15.462C85.7476 16.0534 86.227 16.8068 86.5757 17.722C86.9243 18.6309 87.0986 19.7142 87.0986 20.9719V22.0085H75.3411V19.7298H83.8581C83.8519 19.0823 83.7118 18.5064 83.4378 18.0021C83.1639 17.4916 82.781 17.09 82.2892 16.7974C81.8035 16.5048 81.237 16.3585 80.5895 16.3585C79.8984 16.3585 79.2914 16.5266 78.7684 16.8628C78.2455 17.1928 77.8377 17.6286 77.5451 18.1702C77.2587 18.7056 77.1124 19.294 77.1061 19.9353V21.9244C77.1061 22.7587 77.2587 23.4747 77.5637 24.0723C77.8688 24.6638 78.2953 25.1183 78.8432 25.4358C79.391 25.7471 80.0323 25.9027 80.7669 25.9027C81.2588 25.9027 81.7039 25.8342 82.1024 25.6973C82.5008 25.5541 82.8464 25.3455 83.139 25.0716C83.4316 24.7976 83.6526 24.4583 83.802 24.0537L86.9586 24.4085C86.7593 25.2428 86.3795 25.9712 85.8192 26.5938C85.2651 27.2102 84.5554 27.6896 83.69 28.032C82.8246 28.3682 81.8347 28.5363 80.7202 28.5363ZM105.427 15.5834H101.934C101.835 15.0106 101.651 14.5032 101.383 14.0612C101.116 13.6129 100.783 13.2331 100.384 12.9218C99.9856 12.6105 99.5311 12.3771 99.0206 12.2214C98.5163 12.0596 97.9716 11.9786 97.3863 11.9786C96.3466 11.9786 95.4252 12.2401 94.622 12.7631C93.8189 13.2798 93.1901 14.0394 92.7356 15.0417C92.2811 16.0379 92.0539 17.255 92.0539 18.6932C92.0539 20.1563 92.2811 21.389 92.7356 22.3914C93.1963 23.3875 93.8251 24.1408 94.622 24.6513C95.4252 25.1556 96.3435 25.4078 97.377 25.4078C97.9498 25.4078 98.4852 25.3331 98.9833 25.1836C99.4875 25.028 99.9389 24.8008 100.337 24.5019C100.742 24.2031 101.081 23.8357 101.355 23.3999C101.635 22.9641 101.828 22.4661 101.934 21.9057L105.427 21.9244C105.296 22.8334 105.013 23.6863 104.577 24.4832C104.148 25.2801 103.584 25.9837 102.887 26.5938C102.19 27.1977 101.374 27.6709 100.44 28.0133C99.5062 28.3495 98.4696 28.5176 97.3303 28.5176C95.6493 28.5176 94.1489 28.1285 92.829 27.3502C91.5091 26.572 90.4694 25.4482 89.7098 23.9789C88.9503 22.5096 88.5705 20.7477 88.5705 18.6932C88.5705 16.6324 88.9534 14.8705 89.7192 13.4074C90.485 11.9381 91.5278 10.8144 92.8477 10.0362C94.1676 9.25792 95.6618 8.8688 97.3303 8.8688C98.3949 8.8688 99.3848 9.01822 100.3 9.31707C101.215 9.61591 102.031 10.0548 102.747 10.6338C103.463 11.2066 104.051 11.9101 104.512 12.7444C104.979 13.5724 105.284 14.5188 105.427 15.5834ZM111.526 28.5456C110.617 28.5456 109.799 28.3837 109.07 28.06C108.348 27.73 107.775 27.2444 107.352 26.6031C106.935 25.9619 106.726 25.1712 106.726 24.2311C106.726 23.4217 106.876 22.7525 107.174 22.2233C107.473 21.6941 107.881 21.2707 108.398 20.9532C108.915 20.6357 109.497 20.396 110.144 20.2341C110.798 20.066 111.473 19.9446 112.171 19.8699C113.011 19.7827 113.693 19.7049 114.216 19.6364C114.739 19.5617 115.119 19.4496 115.355 19.3002C115.598 19.1446 115.719 18.9049 115.719 18.5811V18.5251C115.719 17.8216 115.511 17.2768 115.094 16.8908C114.677 16.5048 114.076 16.3118 113.291 16.3118C112.463 16.3118 111.806 16.4924 111.321 16.8535C110.841 17.2146 110.518 17.641 110.35 18.1329L107.193 17.6846C107.442 16.813 107.853 16.0846 108.426 15.4993C108.999 14.9079 109.699 14.4658 110.527 14.1732C111.355 13.8744 112.27 13.725 113.273 13.725C113.964 13.725 114.652 13.8059 115.336 13.9678C116.021 14.1296 116.647 14.3974 117.214 14.7709C117.78 15.1382 118.235 15.6394 118.577 16.2745C118.926 16.9095 119.1 17.7033 119.1 18.6558V28.2561H115.85V26.2856H115.738C115.533 26.6841 115.243 27.0576 114.87 27.4063C114.502 27.7487 114.038 28.0257 113.478 28.2374C112.924 28.4429 112.273 28.5456 111.526 28.5456ZM112.404 26.0615C113.083 26.0615 113.671 25.9276 114.169 25.6599C114.667 25.386 115.05 25.0249 115.318 24.5766C115.592 24.1284 115.729 23.6396 115.729 23.1104V21.4201C115.623 21.5073 115.442 21.5882 115.187 21.6629C114.938 21.7376 114.658 21.803 114.347 21.859C114.035 21.9151 113.727 21.9649 113.422 22.0085C113.117 22.052 112.852 22.0894 112.628 22.1205C112.124 22.189 111.673 22.3011 111.274 22.4567C110.876 22.6124 110.561 22.8303 110.331 23.1104C110.101 23.3844 109.985 23.7392 109.985 24.1751C109.985 24.7976 110.213 25.2677 110.667 25.5852C111.122 25.9027 111.701 26.0615 112.404 26.0615ZM124.828 9.13029V28.2561H121.447V9.13029H124.828ZM130.633 9.13029V28.2561H127.252V9.13029H130.633ZM144.395 17.7033L141.313 18.0395C141.226 17.7282 141.073 17.4356 140.855 17.1616C140.644 16.8877 140.357 16.6667 139.996 16.4986C139.635 16.3305 139.193 16.2464 138.67 16.2464C137.967 16.2464 137.375 16.399 136.896 16.704C136.423 17.0091 136.189 17.4044 136.195 17.8901C136.189 18.3072 136.342 18.6465 136.653 18.908C136.97 19.1695 137.493 19.3843 138.222 19.5524L140.669 20.0753C142.026 20.368 143.034 20.8318 143.694 21.4668C144.361 22.1019 144.697 22.933 144.703 23.9603C144.697 24.863 144.432 25.6599 143.909 26.351C143.392 27.0358 142.673 27.5713 141.752 27.9573C140.831 28.3433 139.772 28.5363 138.577 28.5363C136.821 28.5363 135.408 28.1689 134.337 27.4343C133.266 26.6934 132.628 25.663 132.423 24.3432L135.719 24.0256C135.869 24.6731 136.186 25.1619 136.672 25.4918C137.157 25.8218 137.789 25.9868 138.567 25.9868C139.371 25.9868 140.015 25.8218 140.501 25.4918C140.992 25.1619 141.238 24.7541 141.238 24.2684C141.238 23.8575 141.08 23.5182 140.762 23.2505C140.451 22.9828 139.965 22.7774 139.305 22.6342L136.858 22.1205C135.483 21.8341 134.465 21.3516 133.805 20.673C133.145 19.9882 132.818 19.1228 132.824 18.0768C132.818 17.1928 133.058 16.427 133.543 15.7795C134.035 15.1258 134.717 14.6215 135.588 14.2666C136.466 13.9055 137.478 13.725 138.623 13.725C140.304 13.725 141.627 14.083 142.592 14.7989C143.564 15.5149 144.164 16.483 144.395 17.7033ZM162.305 9.13029V28.2561H159.223L150.212 15.2285H150.053V28.2561H146.588V9.13029H149.689L158.691 22.1672H158.859V9.13029H162.305ZM171.23 28.5363C169.791 28.5363 168.549 28.2374 167.503 27.6397C166.464 27.0358 165.664 26.1829 165.103 25.0809C164.543 23.9727 164.263 22.6684 164.263 21.168C164.263 19.6924 164.543 18.3975 165.103 17.283C165.67 16.1624 166.461 15.2908 167.475 14.6682C168.49 14.0394 169.682 13.725 171.052 13.725C171.936 13.725 172.77 13.8682 173.555 14.1546C174.346 14.4347 175.043 14.8705 175.647 15.462C176.257 16.0534 176.736 16.8068 177.085 17.722C177.434 18.6309 177.608 19.7142 177.608 20.9719V22.0085H165.85V19.7298H174.367C174.361 19.0823 174.221 18.5064 173.947 18.0021C173.673 17.4916 173.29 17.09 172.798 16.7974C172.313 16.5048 171.746 16.3585 171.099 16.3585C170.408 16.3585 169.801 16.5266 169.278 16.8628C168.755 17.1928 168.347 17.6286 168.054 18.1702C167.768 18.7056 167.622 19.294 167.615 19.9353V21.9244C167.615 22.7587 167.768 23.4747 168.073 24.0723C168.378 24.6638 168.805 25.1183 169.352 25.4358C169.9 25.7471 170.542 25.9027 171.276 25.9027C171.768 25.9027 172.213 25.8342 172.612 25.6973C173.01 25.5541 173.356 25.3455 173.648 25.0716C173.941 24.7976 174.162 24.4583 174.311 24.0537L177.468 24.4085C177.269 25.2428 176.889 25.9712 176.328 26.5938C175.774 27.2102 175.065 27.6896 174.199 28.032C173.334 28.3682 172.344 28.5363 171.23 28.5363ZM186.579 13.9117V16.5266H178.333V13.9117H186.579ZM180.369 10.4751H183.749V23.9416C183.749 24.3961 183.818 24.7447 183.955 24.9875C184.098 25.2241 184.285 25.386 184.515 25.4731C184.745 25.5603 185.001 25.6039 185.281 25.6039C185.492 25.6039 185.685 25.5883 185.86 25.5572C186.04 25.5261 186.177 25.4981 186.271 25.4731L186.84 28.116C186.66 28.1783 186.401 28.2468 186.065 28.3215C185.735 28.3962 185.331 28.4398 184.851 28.4522C184.004 28.4771 183.242 28.3495 182.563 28.0693C181.885 27.7829 181.346 27.3409 180.948 26.7432C180.555 26.1455 180.362 25.3984 180.369 24.5019V10.4751ZM191.315 28.2561L187.262 13.9117H190.708L193.229 23.9976H193.36L195.937 13.9117H199.346L201.923 23.9416H202.064L204.548 13.9117H208.003L203.941 28.2561H200.42L197.73 18.5625H197.534L194.845 28.2561H191.315ZM215.158 28.5363C213.757 28.5363 212.543 28.2281 211.515 27.6117C210.488 26.9954 209.691 26.1331 209.125 25.0249C208.564 23.9167 208.284 22.6217 208.284 21.14C208.284 19.6582 208.564 18.3601 209.125 17.2457C209.691 16.1313 210.488 15.2659 211.515 14.6495C212.543 14.0331 213.757 13.725 215.158 13.725C216.558 13.725 217.772 14.0331 218.8 14.6495C219.827 15.2659 220.621 16.1313 221.181 17.2457C221.748 18.3601 222.031 19.6582 222.031 21.14C222.031 22.6217 221.748 23.9167 221.181 25.0249C220.621 26.1331 219.827 26.9954 218.8 27.6117C217.772 28.2281 216.558 28.5363 215.158 28.5363ZM215.176 25.828C215.936 25.828 216.571 25.6195 217.081 25.2023C217.592 24.779 217.972 24.2124 218.221 23.5027C218.476 22.7929 218.604 22.0022 218.604 21.1306C218.604 20.2528 218.476 19.459 218.221 18.7492C217.972 18.0333 217.592 17.4636 217.081 17.0402C216.571 16.6169 215.936 16.4052 215.176 16.4052C214.398 16.4052 213.75 16.6169 213.234 17.0402C212.723 17.4636 212.34 18.0333 212.085 18.7492C211.836 19.459 211.712 20.2528 211.712 21.1306C211.712 22.0022 211.836 22.7929 212.085 23.5027C212.34 24.2124 212.723 24.779 213.234 25.2023C213.75 25.6195 214.398 25.828 215.176 25.828ZM223.848 28.2561V13.9117H227.126V16.3025H227.276C227.537 15.4744 227.985 14.8363 228.62 14.388C229.262 13.9335 229.993 13.7063 230.815 13.7063C231.002 13.7063 231.21 13.7156 231.441 13.7343C231.677 13.7468 231.873 13.7685 232.029 13.7997V16.9095C231.886 16.8597 231.659 16.8161 231.347 16.7787C231.042 16.7352 230.747 16.7134 230.46 16.7134C229.844 16.7134 229.29 16.8472 228.798 17.1149C228.312 17.3764 227.929 17.7406 227.649 18.2076C227.369 18.6745 227.229 19.2131 227.229 19.8232V28.2561H223.848ZM236.305 23.7548L236.296 19.6738H236.837L241.992 13.9117H245.943L239.601 20.9719H238.901L236.305 23.7548ZM233.223 28.2561V9.13029H236.604V28.2561H233.223ZM242.226 28.2561L237.556 21.7283L239.835 19.3469L246.269 28.2561H242.226Z" fill="#171718"/>
<path d="M247.808 9.84148C247.794 9.71713 247.734 9.62031 247.629 9.55102C247.524 9.48173 247.388 9.44708 247.22 9.44708C247.103 9.44708 247.001 9.46369 246.917 9.49692C246.833 9.53014 246.768 9.57523 246.724 9.63218C246.679 9.68913 246.656 9.75415 246.655 9.82724C246.655 9.88799 246.67 9.94067 246.699 9.98529C246.73 10.0299 246.771 10.0679 246.823 10.0992C246.875 10.1296 246.932 10.1552 246.995 10.1761C247.058 10.197 247.121 10.2145 247.185 10.2288L247.478 10.2971C247.596 10.3227 247.709 10.3574 247.818 10.401C247.927 10.4447 248.025 10.4998 248.112 10.5662C248.199 10.6327 248.268 10.7129 248.319 10.8068C248.37 10.9008 248.395 11.0109 248.395 11.1372C248.395 11.308 248.348 11.4585 248.255 11.5885C248.161 11.7176 248.026 11.8187 247.85 11.8918C247.674 11.9639 247.461 12 247.211 12C246.968 12 246.758 11.9649 246.579 11.8946C246.401 11.8244 246.262 11.7219 246.161 11.5871C246.062 11.4523 246.008 11.2881 246 11.0944H246.556C246.564 11.196 246.598 11.2805 246.657 11.3479C246.716 11.4153 246.792 11.4656 246.887 11.4988C246.982 11.532 247.089 11.5486 247.207 11.5486C247.33 11.5486 247.437 11.5316 247.53 11.4974C247.623 11.4623 247.696 11.4139 247.749 11.3522C247.802 11.2895 247.829 11.2164 247.83 11.1329C247.829 11.057 247.805 10.9943 247.758 10.9449C247.711 10.8946 247.646 10.8529 247.562 10.8196C247.478 10.7855 247.381 10.7551 247.269 10.7285L246.914 10.6431C246.657 10.5814 246.454 10.4879 246.305 10.3626C246.156 10.2364 246.082 10.0688 246.082 9.85999C246.082 9.68818 246.132 9.53773 246.232 9.40864C246.332 9.27954 246.469 9.1794 246.641 9.10821C246.814 9.03607 247.01 9 247.228 9C247.449 9 247.643 9.03607 247.81 9.10821C247.978 9.1794 248.109 9.2786 248.205 9.40579C248.3 9.53204 248.349 9.67727 248.352 9.84148H247.808Z" fill="black"/>
<path d="M248.727 9.03987H249.419L250.345 11.1528H250.382L251.308 9.03987H252V11.9559H251.458V9.95254H251.429L250.566 11.9473H250.161L249.299 9.94827H249.27V11.9559H248.727V9.03987Z" fill="black"/>
</svg>
